<?xml version="1.0" encoding="UTF-8"?>
<svg id="Layer_1" xmlns="http://www.w3.org/2000/svg" version="1.1" xmlns:xlink="http://www.w3.org/1999/xlink" viewBox="0 0 31.9 32">
  <!-- Generator: Adobe Illustrator 29.6.0, SVG Export Plug-In . SVG Version: 2.1.1 Build 207)  -->
  <defs>
    <style>
      .st0 {
        fill: #fff;
      }

      .st1 {
        fill: #ff1aa6;
      }

      .st2 {
        fill: #3afffc;
      }

      .st3 {
        fill: url(#linear-gradient);
      }
    </style>
    <linearGradient id="linear-gradient" x1="14.6" y1="1.8" x2="17" y2="30.7" gradientTransform="translate(0 34) scale(1 -1)" gradientUnits="userSpaceOnUse">
      <stop offset="0" stop-color="#334585"/>
      <stop offset="0" stop-color="#3d2b94"/>
      <stop offset="1" stop-color="#35004f"/>
    </linearGradient>
  </defs>
  <circle class="st3" cx="15.9" cy="16" r="15.9"/>
  <path class="st1" d="M22.9,12.5c.8.8,1.2,1.9,1.2,3.3v6.2h-2.7v-5.8c0-.8-.2-1.5-.7-1.9s-1-.7-1.7-.7-1.3.2-1.7.7-.7,1.1-.7,1.9v5.8h-2.7v-5.8c0-.8-.2-1.5-.7-1.9s-1-.7-1.7-.7-1.3.2-1.7.7-.7,1.1-.7,1.9v5.8h-2.7v-10.6h2.7v1.2c.3-.4.7-.8,1.3-1.1.5-.2,1.2-.4,1.7-.4s1.6.2,2.2.5c.7.3,1.2.8,1.5,1.5.3-.6.8-1.1,1.5-1.5.7-.3,1.3-.6,2.2-.6,1.3,0,2.3.4,3.2,1.2l.2.2Z"/>
  <path class="st2" d="M24.2,10.7c.8.8,1.2,1.9,1.2,3.3v6.2h-2.7v-5.8c0-.8-.2-1.5-.7-1.9s-1-.7-1.7-.7-1.3.2-1.7.7-.7,1.1-.7,1.9v5.8h-2.7v-5.8c0-.8-.2-1.5-.7-1.9s-1-.7-1.7-.7-1.3.2-1.7.7-.7,1.1-.7,1.9v5.8h-2.7v-10.6h2.7v1.2c.3-.4.7-.8,1.3-1.1.5-.2,1.2-.4,1.7-.4s1.6.2,2.2.5c.7.3,1.2.8,1.5,1.5.3-.6.8-1.1,1.5-1.5.7-.3,1.3-.6,2.2-.6,1.3,0,2.3.4,3.2,1.2l.2.2Z"/>
  <path class="st0" d="M23.6,11.4c.8.8,1.2,1.9,1.2,3.3v6.2h-2.7v-5.8c0-.8-.2-1.5-.7-1.9s-1-.7-1.7-.7-1.3.2-1.7.7-.7,1.1-.7,1.9v5.8h-2.7v-5.8c0-.8-.2-1.5-.7-1.9s-1-.7-1.7-.7-1.3.2-1.7.7-.7,1.1-.7,1.9v5.8h-2.7v-10.6h2.7v1.2c.3-.4.7-.8,1.3-1.1.5-.2,1.2-.4,1.7-.4s1.6.2,2.2.5c.7.3,1.2.8,1.5,1.5.3-.6.8-1.1,1.5-1.5.7-.3,1.3-.6,2.2-.6,1.3,0,2.3.4,3.2,1.2l.2.2Z"/>
</svg>